<svg width="140" height="45" viewBox="0 0 140 45" fill="none" xmlns="http://www.w3.org/2000/svg">
<path fill-rule="evenodd" clip-rule="evenodd" d="M21.6729 0C33.6087 0 43.3442 9.75058 43.3442 21.7065C43.3442 33.6623 33.6087 43.4113 21.6729 43.4113C17.6588 43.4052 13.7249 42.285 10.308 40.175C6.8911 38.0651 4.12498 35.0479 2.31669 31.4586H15.6683V33.3621C15.6683 37.2415 18.8486 39.1812 25.2093 39.1812H28.0968C29.0534 39.1812 29.5344 38.6989 29.5397 37.7344C29.5397 36.7944 29.0588 36.3244 28.0968 36.3244H24.3292C20.8321 36.3244 19.0836 35.478 19.0836 33.7853V31.4586H39.2577C40.2675 31.4586 40.7719 30.9295 40.7708 29.8713V25.3521C40.7708 22.0136 38.1304 20.3443 32.8497 20.3443H25.1041C18.8146 20.3443 15.6694 22.2718 15.6683 26.1266V28.5395H1.10494C0.371536 26.3363 -0.00158244 24.0289 5.04433e-06 21.7065C5.04433e-06 9.75058 9.73551 0 21.6729 0ZM19.0836 28.49H37.4688V25.7098C37.4688 24.0172 36.1539 23.1713 33.5242 23.1724H24.3292C20.8321 23.1724 19.0836 24.0656 19.0836 25.852V28.4964V28.49Z" fill="#8BBCDD"/>
<path fill-rule="evenodd" clip-rule="evenodd" d="M137.12 33.4611C137.12 37.2703 134.162 39.1748 128.247 39.1748H121.346C115.315 39.1748 112.299 37.2703 112.298 33.4611V26.1985C112.298 22.2958 115.349 20.3444 121.451 20.3444H128.247C134.162 20.3444 137.12 22.2835 137.12 26.1618V33.4611ZM133.599 25.8807C133.599 24.0709 131.991 23.166 128.774 23.166H120.962C117.466 23.166 115.717 24.1774 115.716 26.2001V33.4628C115.716 35.3684 117.465 36.3207 120.962 36.3196H128.774C131.991 36.3196 133.599 35.3673 133.599 33.4628V25.8807Z" fill="#555555"/>
<path fill-rule="evenodd" clip-rule="evenodd" d="M110.847 38.8921C110.847 42.6523 107.737 44.5329 101.517 44.5339H98.6947C97.7092 44.5339 97.2167 44.0756 97.2167 43.159C97.2167 42.219 97.7092 41.749 98.6947 41.749H101.933C105.619 41.749 107.462 40.9729 107.461 39.4207V39.1748H95.708C89.066 39.1748 85.7444 37.2819 85.7444 33.4963V26.0564C85.7444 22.2483 88.774 20.3444 94.8326 20.3444H100.958C107.554 20.3444 110.852 22.2606 110.852 26.0931V38.8938L110.847 38.8921ZM107.362 36.318V26.3039C107.362 24.212 105.542 23.166 101.904 23.166H94.23C90.8499 23.166 89.1598 24.1061 89.1598 25.9862V33.4611C89.1598 35.3668 91.1193 36.319 95.0382 36.318H107.362Z" fill="#555555"/>
<path fill-rule="evenodd" clip-rule="evenodd" d="M84.2998 17.6297C84.2998 18.8285 83.5026 19.4278 81.9081 19.4278C80.4064 19.4278 79.6555 18.8285 79.6555 17.6297C79.6555 16.431 80.4052 15.8317 81.9053 15.8317C83.4997 15.8317 84.2969 16.431 84.2969 17.6297H84.2998ZM83.7065 37.8335C83.7065 38.8449 83.155 39.3506 82.0518 39.3506C80.9481 39.3506 80.3965 38.8449 80.3965 37.8335V22.8835C80.3965 21.919 80.9249 21.4373 81.9817 21.4383C83.1318 21.4383 83.7065 21.92 83.7065 22.8835V37.8335Z" fill="#555555"/>
<path fill-rule="evenodd" clip-rule="evenodd" d="M78.3462 37.8334C78.3462 38.8448 77.7714 39.3505 76.6213 39.3505C75.4944 39.3505 74.9313 38.8448 74.9313 37.8334V25.8456C74.9313 24.0592 73.0767 23.166 69.3681 23.166C64.9793 23.166 62.7852 24.2354 62.7852 26.3742V37.8334C62.7852 38.8448 62.233 39.3505 61.1299 39.3505C59.9329 39.3505 59.3344 38.8448 59.3344 37.8334V26.3742C59.3344 24.2343 57.1513 23.1649 52.7848 23.166C49.0304 23.166 47.1528 24.0709 47.1517 25.8807V37.8334C47.1517 38.8448 46.5766 39.3505 45.4265 39.3505C44.3009 39.3505 43.7375 38.8448 43.7365 37.8334V26.3039C43.7365 22.3309 46.7525 20.3444 52.7848 20.3444C57.2215 20.3444 60.0267 21.3786 61.2 23.4471C62.3981 21.3786 65.1206 20.3444 69.3681 20.3444C75.3537 20.3444 78.3462 22.3309 78.3462 26.3039V37.8334Z" fill="#555555"/>
<path fill-rule="evenodd" clip-rule="evenodd" d="M33.7906 44.6504V43.5837L34.5878 42.1545H34.1732L33.883 42.7693C33.7906 42.9625 33.7045 43.151 33.6327 43.3426H33.6216C33.5466 43.151 33.4542 42.9546 33.3665 42.7805L33.0556 42.1577H32.6426L33.3983 43.5949V44.6504H33.7906ZM36.592 42.1242C35.9909 42.1242 35.5811 42.5729 35.5811 43.4017C35.5811 44.2305 35.9654 44.6792 36.5378 44.6792C37.1101 44.6792 37.5327 44.3199 37.5327 43.3825C37.5327 42.5841 37.1819 42.1226 36.5935 42.1226L36.592 42.1242ZM36.5569 42.3765C37.0065 42.3765 37.1229 42.929 37.1229 43.3953C37.1229 43.8616 37.0065 44.4285 36.5617 44.4285C36.1168 44.4285 35.9909 43.9175 35.9909 43.4033C35.9909 42.8891 36.128 42.3765 36.5569 42.3765ZM38.9485 42.1545V43.8169C38.9485 44.4365 39.2849 44.6808 39.8015 44.6808C40.3181 44.6808 40.6785 44.4317 40.6785 43.7833V42.1577H40.2862V43.8313C40.2862 44.2688 40.1029 44.4317 39.8079 44.4317C39.5432 44.4317 39.3376 44.272 39.3376 43.8313V42.1577L38.9485 42.1545ZM42.2521 44.6504H42.6444V43.5614H42.8038C43.1402 43.5614 43.2821 43.6907 43.3651 44.0324C43.3996 44.2455 43.4612 44.4531 43.5484 44.6504H43.947C43.857 44.4462 43.7922 44.2316 43.7541 44.0117C43.676 43.6923 43.5436 43.5087 43.2885 43.4528C43.6361 43.3378 43.8402 43.1334 43.8402 42.814C43.8434 42.719 43.8231 42.6247 43.7811 42.5394C43.739 42.4542 43.6767 42.3806 43.5994 42.3254C43.3651 42.1889 43.0948 42.127 42.8246 42.1481C42.6348 42.1463 42.4453 42.1623 42.2585 42.1961V44.6552L42.2521 44.6504ZM42.6444 42.3877C42.7118 42.3764 42.7801 42.3716 42.8484 42.3733C43.2726 42.3733 43.4352 42.5537 43.4352 42.8428C43.4352 43.1318 43.1849 43.3426 42.8086 43.3426H42.6492V42.3845L42.6444 42.3877ZM48.5947 43.3458H47.7784V43.5821H48.2217V44.3934C48.1441 44.4165 48.0633 44.4268 47.9825 44.4237C47.5695 44.4237 47.1661 44.1762 47.1661 43.4049C47.1661 42.6336 47.6301 42.3828 48.059 42.3828C48.1943 42.3788 48.3293 42.3989 48.4576 42.442L48.5437 42.1976C48.3857 42.1467 48.2202 42.1229 48.0542 42.1274C47.4467 42.1274 46.7627 42.4611 46.758 43.4304C46.7443 43.6168 46.7745 43.8038 46.8463 43.9763C46.918 44.1488 47.0292 44.3021 47.1709 44.4237C47.4047 44.5975 47.6918 44.684 47.9825 44.668C48.1893 44.6661 48.3951 44.6377 48.5947 44.5834V43.3426V43.3458ZM51.259 43.9015L51.4886 44.6489H51.876L51.1107 42.1577H50.677L49.891 44.6536H50.2688L50.4985 43.9063L51.259 43.9015ZM50.5542 43.6716L50.7328 43.0328C50.7791 42.8731 50.8301 42.6512 50.8699 42.4627H50.8907C50.9321 42.648 50.9784 42.8555 51.0294 43.0328L51.208 43.6716H50.5542ZM53.3604 44.6489H53.7543V42.4132H54.3809V42.1577H52.7323V42.4132H53.3604V44.6489ZM56.9782 43.2228H56.1235V42.4004H57.0419V42.1577H55.7314V44.6536H57.1041V44.4061H56.1235V43.4688H56.9861V43.2276L56.9782 43.2228ZM59.3617 44.6489L59.703 43.4448C59.7812 43.1721 59.8443 42.8955 59.893 42.616H59.9023C59.944 42.8891 60.0089 43.1717 60.0761 43.4336L60.4075 44.6489H60.7905L61.4602 42.1529H61.0761L60.7905 43.341C60.725 43.6236 60.663 43.8967 60.6068 44.256H60.5877C60.5431 43.942 60.4764 43.6315 60.3884 43.3267L60.0697 42.1529H59.7331L59.4144 43.3522C59.3281 43.649 59.2597 43.9509 59.2105 44.256H59.1896C59.1496 43.9494 59.094 43.6716 59.0303 43.357L58.7383 42.1577H58.3304L58.9938 44.6504L59.3617 44.6489ZM63.7911 43.9015L64.0205 44.6489H64.4145L63.6427 42.1577H63.2094L62.4231 44.6536H62.8009L63.0303 43.9063L63.7911 43.9015ZM63.0865 43.6716L63.265 43.0328C63.3113 42.8731 63.3623 42.6512 63.4035 42.4627H63.4226C63.4643 42.648 63.5106 42.8555 63.5616 43.0328L63.7401 43.6716H63.0865ZM66.4238 44.6489V43.5821L67.2204 42.1529H66.8062L66.5159 42.7677C66.4232 42.961 66.3374 43.1494 66.2656 43.341H66.2546C66.1793 43.1494 66.0872 42.953 65.9991 42.7789L65.6903 42.1577H65.2754L66.0315 43.5949V44.6504L66.4238 44.6489ZM70.3282 44.6489H70.7205V42.4132H71.3485V42.1577H69.7002V42.4132H70.3282V44.6489ZM73.3943 42.1226C72.7917 42.1226 72.3833 42.5713 72.3833 43.4001C72.3833 44.2289 72.7663 44.6776 73.3398 44.6776C73.914 44.6776 74.3352 44.3183 74.3352 43.3809C74.3352 42.5825 73.9824 42.121 73.396 42.121L73.3943 42.1226ZM73.359 42.3749C73.8074 42.3749 73.925 42.9274 73.925 43.3937C73.925 43.86 73.8074 44.4269 73.3642 44.4269C72.9209 44.4269 72.7917 43.9159 72.7917 43.4017C72.7917 42.8875 72.9302 42.3749 73.359 42.3749ZM77.202 44.5642C77.3868 44.6375 77.5844 44.6739 77.7837 44.6712C78.3289 44.6712 78.7402 44.4013 78.7402 43.9718C78.7402 43.6939 78.5554 43.464 78.1423 43.2532C77.8237 43.0823 77.6371 42.9865 77.6371 42.7374C77.6371 42.5681 77.7964 42.3828 78.1331 42.3828C78.2738 42.3796 78.4135 42.4086 78.5409 42.4675L78.6383 42.2232C78.4871 42.1586 78.3242 42.1271 78.1597 42.1305C77.6133 42.1305 77.2512 42.4084 77.2512 42.7869C77.2512 43.1063 77.629 43.341 77.8984 43.4783C78.1678 43.6157 78.3526 43.7674 78.3526 43.9973C78.3526 44.2273 78.1394 44.4189 77.7819 44.4189C77.6122 44.4178 77.4436 44.3842 77.286 44.3199L77.2003 44.5642H77.202ZM80.1609 42.1577V43.8201C80.1609 44.4397 80.4975 44.684 81.0137 44.684C81.5305 44.684 81.8909 44.4349 81.8909 43.7865V42.1577H81.4987V43.8313C81.4987 44.2688 81.3139 44.4317 81.0201 44.4317C80.7559 44.4317 80.5502 44.272 80.5502 43.8313V42.1577H80.1609ZM84.8962 44.3694C84.7791 44.4067 84.6575 44.425 84.5346 44.4237C84.1152 44.4237 83.7275 44.173 83.7275 43.4097C83.7275 42.6463 84.1563 42.3877 84.5248 42.3877C84.6424 42.3842 84.7594 42.4015 84.8707 42.4388L84.9587 42.1976C84.8208 42.1503 84.6754 42.1292 84.5294 42.1354C83.9894 42.1354 83.3145 42.4547 83.3145 43.4352C83.3145 44.2832 83.793 44.676 84.4674 44.676C84.6337 44.682 84.8 44.6593 84.9587 44.6089L84.8962 44.3694ZM87.672 44.3694C87.5555 44.4067 87.4333 44.425 87.3104 44.4237C86.891 44.4237 86.5034 44.173 86.5034 43.4097C86.5034 42.6463 86.9327 42.3877 87.3006 42.3877C87.4182 42.3842 87.5352 42.4015 87.6465 42.4388L87.7345 42.1976C87.5967 42.1503 87.4512 42.1292 87.3058 42.1354C86.7635 42.1354 86.0908 42.4547 86.0908 43.4352C86.0908 44.2832 86.5688 44.676 87.2432 44.676C87.4095 44.682 87.5758 44.6593 87.7345 44.6089L87.672 44.3694ZM90.351 43.2276H89.4883V42.4052H90.4038V42.1577H89.0961V44.6536H90.4686V44.4061H89.4883V43.4688H90.351V43.2276ZM91.6981 44.569C91.8835 44.6422 92.0811 44.6786 92.2804 44.676C92.8267 44.676 93.2445 44.4061 93.2445 43.9766C93.2445 43.6987 93.0614 43.4688 92.6471 43.258C92.3279 43.0871 92.1431 42.9913 92.1431 42.7422C92.1431 42.5729 92.3024 42.3877 92.6373 42.3877C92.7781 42.3842 92.9177 42.4132 93.0457 42.4723L93.1425 42.228C92.9918 42.1634 92.8285 42.1318 92.6645 42.1354C92.1176 42.1354 91.7554 42.4132 91.7554 42.7917C91.7554 43.111 92.1332 43.3458 92.4044 43.4831C92.6755 43.6204 92.8592 43.7722 92.8592 44.0021C92.8592 44.2321 92.6436 44.4237 92.2867 44.4237C92.117 44.4228 91.949 44.3892 91.792 44.3247L91.7045 44.569H91.6981ZM94.4994 44.569C94.6848 44.6422 94.8824 44.6786 95.0817 44.676C95.6286 44.676 96.0382 44.4061 96.0382 43.9766C96.0382 43.6987 95.8546 43.4688 95.4403 43.258C95.1217 43.0871 94.9363 42.9913 94.9363 42.7422C94.9363 42.5729 95.0956 42.3877 95.4305 42.3877C95.5713 42.3842 95.7109 42.4132 95.8389 42.4723L95.9363 42.228C95.785 42.1634 95.6222 42.1318 95.4577 42.1354C94.9108 42.1354 94.5492 42.4132 94.5492 42.7917C94.5492 43.111 94.927 43.3458 95.1981 43.4831C95.4687 43.6204 95.6524 43.7722 95.6524 44.0021C95.6524 44.2321 95.4368 44.4237 95.0799 44.4237C94.9096 44.4226 94.7416 44.389 94.584 44.3247L94.4982 44.569H94.4994Z" fill="black"/>
<path fill-rule="evenodd" clip-rule="evenodd" d="M137.516 15.8865C138.007 15.8861 138.487 16.0313 138.895 16.3038C139.304 16.5763 139.622 16.9637 139.81 17.4172C139.998 17.8706 140.048 18.3696 139.953 18.8513C139.857 19.3328 139.621 19.7753 139.274 20.1227C138.927 20.4701 138.485 20.7069 138.003 20.803C137.523 20.8991 137.023 20.8503 136.569 20.6627C136.116 20.4752 135.728 20.1573 135.455 19.7493C135.182 19.3413 135.036 18.8615 135.035 18.3706C135.037 17.7128 135.298 17.0822 135.763 16.617C136.228 16.1517 136.858 15.8897 137.516 15.8882V15.8865ZM137.516 16.2436C137.934 16.2433 138.343 16.3668 138.691 16.5987C139.039 16.8305 139.31 17.1602 139.471 17.5463C139.632 17.9323 139.675 18.3573 139.594 18.7676C139.513 19.1779 139.313 19.5552 139.018 19.8518C138.724 20.1483 138.347 20.3509 137.938 20.4339C137.528 20.5169 137.103 20.4766 136.716 20.3182C136.329 20.1597 135.998 19.8901 135.763 19.5435C135.53 19.1968 135.404 18.7887 135.401 18.3706C135.403 17.8099 135.626 17.2724 136.022 16.8758C136.418 16.4792 136.955 16.2558 137.516 16.2544V16.2436Z" fill="black"/>
<path fill-rule="evenodd" clip-rule="evenodd" d="M136.318 19.2256H136.67V17.8822H137.094V17.5627H135.902V17.8822H136.318V19.2256ZM138.608 19.2256H138.95L138.864 17.5675H138.4L138.241 18.1218C138.19 18.3055 138.137 18.5244 138.094 18.716H138.081C138.048 18.5227 137.998 18.3135 137.951 18.1234L137.791 17.5707H137.324L137.223 19.2288H137.542L137.569 18.5978C137.582 18.3917 137.588 18.1362 137.598 17.9126C137.635 18.1282 137.688 18.3646 137.738 18.5611L137.898 19.2H138.171L138.36 18.5531C138.419 18.3582 138.485 18.1218 138.532 17.9141C138.532 18.1553 138.54 18.3934 138.547 18.5946L138.57 19.2336L138.608 19.2256Z" fill="black"/>
</svg>
